<?xml version="1.0" encoding="utf-8"?>
<!-- Generator: Adobe Illustrator 27.5.0, SVG Export Plug-In . SVG Version: 6.00 Build 0)  -->
<svg version="1.1" xmlns="http://www.w3.org/2000/svg" xmlns:xlink="http://www.w3.org/1999/xlink" x="0px" y="0px"
	 viewBox="0 0 3710 3710" style="enable-background:new 0 0 3710 3710;" xml:space="preserve">
<g id="Background">
	<g>
		<g>
			<rect style="fill:#FFFFFF;" width="3710" height="3710"/>
		</g>
	</g>
</g>
<g id="Illustration">
	<g>
		<linearGradient id="SVGID_1_" gradientUnits="userSpaceOnUse" x1="3432.6335" y1="3261.5842" x2="1421.0946" y2="1501.4889">
			<stop  offset="0" style="stop-color:#B37CFF"/>
			<stop  offset="1" style="stop-color:#F895E7"/>
		</linearGradient>
		<path style="opacity:0.3;fill:url(#SVGID_1_);" d="M3090.777,2347.488c-259.972,612.129-952.477,955.048-1553.018,862.547
			c-97.72-15.052-365.623-59.889-602.814-271.414C478.336,2531.419,380.687,1725.107,749.019,1156.88
			c268.081-413.57,748.644-648.009,1205.272-636.282c98.358,2.526,475.306,18.094,806.578,291.253
			c48.657,40.122,155.976,135.462,252.696,286.714C3240.682,1453.731,3260.203,1948.556,3090.777,2347.488z"/>
		<g>
			<g>
				<g style="opacity:0.3;">
					
						<linearGradient id="SVGID_00000070829765761761606990000000874356171537124480_" gradientUnits="userSpaceOnUse" x1="-909.0043" y1="140.6329" x2="-672.3466" y2="140.6329" gradientTransform="matrix(0.9056 0.4242 -0.4242 0.9056 1926.7653 1182.5217)">
						<stop  offset="0" style="stop-color:#B37CFF"/>
						<stop  offset="1" style="stop-color:#F895E7"/>
					</linearGradient>
					<path style="fill:url(#SVGID_00000070829765761761606990000000874356171537124480_);" d="M965.287,1244.808
						c-0.943-5.137,2.459-10.065,7.595-11.006c9.979-1.831,20.027-4.12,29.865-6.809c4.978-1.36,10.113,1.523,11.561,6.452
						c0.017,0.058,0.034,0.117,0.052,0.177c1.376,5.037-1.593,10.236-6.631,11.612c-10.355,2.829-20.933,5.241-31.438,7.167
						c-4.803,0.882-9.425-2.039-10.772-6.624C965.425,1245.462,965.346,1245.139,965.287,1244.808z M1049.735,1210.625
						c9.376-4.002,18.668-8.443,27.628-13.204c4.608-2.449,10.334-0.699,12.786,3.912c2.444,4.636,0.697,10.337-3.915,12.787
						c-9.426,5.009-19.208,9.685-29.072,13.897c-4.802,2.05-10.359-0.183-12.409-4.985c-0.149-0.349-0.275-0.702-0.379-1.057
						C1043.042,1217.442,1045.282,1212.526,1049.735,1210.625z M1119.549,1171.085c8.227-5.972,16.293-12.374,23.979-19.034
						c3.946-3.419,9.919-2.991,13.338,0.955c3.411,3.946,2.99,9.915-0.955,13.338c-8.094,7.013-16.591,13.757-25.253,20.043
						c-4.226,3.068-10.138,2.127-13.207-2.096c-0.653-0.901-1.125-1.879-1.422-2.889
						C1114.933,1177.675,1116.224,1173.498,1119.549,1171.085z M1178.766,1116.924c6.693-7.669,13.128-15.718,19.132-23.923
						c3.085-4.213,9.002-5.13,13.215-2.046c4.21,3.088,5.123,9.002,2.046,13.214c-6.324,8.638-13.1,17.111-20.14,25.185
						c-3.433,3.934-9.406,4.342-13.34,0.909c-1.408-1.228-2.365-2.781-2.855-4.45
						C1175.944,1122.818,1176.564,1119.452,1178.766,1116.924z M1224.442,1050.921c4.81-8.942,9.306-18.218,13.357-27.569
						c2.08-4.792,7.647-6.991,12.437-4.915c4.794,2.077,6.993,7.646,4.912,12.436c-4.262,9.837-8.994,19.597-14.055,29.006
						c-2.472,4.599-8.205,6.322-12.805,3.847c-2.318-1.246-3.905-3.32-4.593-5.661
						C1223.019,1055.762,1223.214,1053.202,1224.442,1050.921z M1254.374,976.457c2.718-9.799,5.047-19.835,6.925-29.833
						c0.964-5.132,5.907-8.512,11.036-7.548c5.133,0.963,8.513,5.902,7.55,11.037c-1.974,10.521-4.429,21.087-7.289,31.399
						c-1.397,5.031-6.606,7.978-11.639,6.583c-3.269-0.906-5.656-3.423-6.546-6.455
						C1253.931,980.005,1253.884,978.221,1254.374,976.457z M1181.245,633.051c3.951-3.413,9.923-2.977,13.336,0.977
						c6.99,8.097,13.722,16.611,20.005,25.301c3.06,4.232,2.11,10.143-2.123,13.201c-4.229,3.06-10.14,2.109-13.199-2.122
						c-5.966-8.252-12.359-16.334-18.998-24.022c-0.911-1.055-1.547-2.252-1.916-3.508
						C1177.337,639.43,1178.345,635.552,1181.245,633.051z M1267.048,897.258c0.47-10.152,0.506-20.448,0.102-30.604
						c-0.205-5.219,3.857-9.617,9.074-9.824c5.22-0.207,9.591,3.859,9.822,9.075c0.424,10.694,0.387,21.537-0.109,32.228
						c-0.242,5.216-4.666,9.249-9.884,9.007c-4.137-0.192-7.53-3.015-8.636-6.779C1267.13,899.382,1267,898.336,1267.048,897.258z
						 M1229.463,699.877c4.614-2.441,10.337-0.677,12.779,3.939c4.999,9.456,9.656,19.253,13.846,29.116
						c2.065,4.802-0.202,10.357-5.007,12.4c-4.805,2.041-10.356-0.201-12.4-5.007c-3.982-9.374-8.407-18.685-13.16-27.67
						c-0.303-0.573-0.538-1.164-0.714-1.763C1223.566,706.667,1225.421,702.013,1229.463,699.877z M1261.706,817.228
						c-1.813-9.996-4.079-20.044-6.743-29.869c-1.369-5.041,1.609-10.233,6.651-11.6c4.974-1.348,10.098,1.535,11.544,6.457
						c0.019,0.064,0.038,0.129,0.053,0.194c2.807,10.342,5.196,20.922,7.104,31.441c0.928,5.139-2.48,10.06-7.619,10.992
						c-4.798,0.871-9.41-2.049-10.755-6.628C1261.848,817.895,1261.77,817.563,1261.706,817.228z"/>
					
						<linearGradient id="SVGID_00000116204061795097393060000004577582253613994669_" gradientUnits="userSpaceOnUse" x1="6475.2026" y1="1053.7817" x2="6506.6982" y2="1053.7817" gradientTransform="matrix(-0.2819 -0.9595 -0.9595 0.2819 3986.3567 6529.9468)">
						<stop  offset="0" style="stop-color:#B37CFF"/>
						<stop  offset="1" style="stop-color:#F895E7"/>
					</linearGradient>
					<path style="fill:url(#SVGID_00000116204061795097393060000004577582253613994669_);" d="M1130.591,596.758
						c0.525,1.786,1.58,3.438,3.142,4.693c3.8,3.055,7.596,6.241,11.292,9.466c3.931,3.435,9.906,3.033,13.34-0.899
						c3.437-3.931,3.039-9.91-0.902-13.341c-3.885-3.395-7.879-6.745-11.876-9.961c-4.068-3.272-10.022-2.628-13.292,1.44
						C1130.275,590.665,1129.748,593.888,1130.591,596.758z"/>
				</g>
				<g style="opacity:0.3;">
					
						<linearGradient id="SVGID_00000142160779468843563470000013955648157074388658_" gradientUnits="userSpaceOnUse" x1="6638.6841" y1="1294.4441" x2="6660.2969" y2="1294.4441" gradientTransform="matrix(-0.2819 -0.9595 -0.9595 0.2819 3986.3567 6529.9468)">
						<stop  offset="0" style="stop-color:#B37CFF"/>
						<stop  offset="1" style="stop-color:#F895E7"/>
					</linearGradient>
					<path style="fill:url(#SVGID_00000142160779468843563470000013955648157074388658_);" d="M853.257,518.142
						c1.286,4.378,5.593,7.299,10.265,6.704c4.834-0.618,9.765-1.144,14.65-1.563c5.204-0.447,9.059-5.027,8.612-10.229
						c-0.449-5.224-5.029-9.059-10.229-8.612c-5.143,0.443-10.335,0.996-15.426,1.645c-5.18,0.661-8.843,5.396-8.183,10.576
						C853.011,517.172,853.117,517.666,853.257,518.142z"/>
					
						<linearGradient id="SVGID_00000070090657176077360390000007453577299072174244_" gradientUnits="userSpaceOnUse" x1="-1427.5785" y1="189.45" x2="-1174.4156" y2="189.45" gradientTransform="matrix(0.9056 0.4242 -0.4242 0.9056 1926.7653 1182.5217)">
						<stop  offset="0" style="stop-color:#B37CFF"/>
						<stop  offset="1" style="stop-color:#F895E7"/>
					</linearGradient>
					<path style="fill:url(#SVGID_00000070090657176077360390000007453577299072174244_);" d="M541.346,968.922
						c-1.225-5.076,1.897-10.185,6.976-11.41c5.076-1.224,10.173,1.896,11.407,6.975c2.331,9.664,5.112,19.379,8.289,28.987
						c1.648,4.928-1.053,10.306-6.01,11.946c-4.958,1.639-10.306-1.051-11.947-6.008c-1.377-4.163-2.679-8.332-3.905-12.506
						C544.407,980.951,542.787,974.901,541.346,968.922z M573.859,1034.476c4.688-2.294,10.351-0.352,12.645,4.338
						c4.408,9.004,9.241,17.92,14.371,26.498c2.691,4.468,1.221,10.287-3.261,12.968c-4.479,2.679-10.286,1.218-12.965-3.263
						c-5.402-9.031-10.492-18.417-15.127-27.893c-0.24-0.491-0.435-0.994-0.584-1.501
						C567.664,1041.285,569.659,1036.532,573.859,1034.476z M532.721,918.127c-1.046-10.467-1.66-21.123-1.818-31.672
						c-0.079-5.221,4.09-9.518,9.314-9.598c5.22-0.078,9.509,4.091,9.596,9.313c0.149,10.019,0.73,20.135,1.726,30.075
						c0.518,5.196-3.271,9.83-8.469,10.35c-4.596,0.459-8.751-2.456-10.008-6.733C532.898,919.305,532.781,918.725,532.721,918.127z
						 M615.529,1104.042c4.07-3.269,10.024-2.62,13.291,1.453c6.266,7.806,12.942,15.435,19.839,22.678
						c3.606,3.783,3.458,9.764-0.327,13.367c-3.781,3.601-9.763,3.455-13.364-0.325c-7.264-7.628-14.295-15.664-20.893-23.882
						c-0.796-0.994-1.363-2.097-1.702-3.249C611.326,1110.517,612.452,1106.512,615.529,1104.042z M533.668,835.044
						c1.281-10.435,3.027-20.96,5.19-31.286c1.07-5.111,6.078-8.385,11.188-7.317c5.114,1.069,8.389,6.081,7.318,11.192
						c-2.053,9.809-3.712,19.807-4.927,29.716c-0.637,5.184-5.355,8.87-10.538,8.233c-3.862-0.474-6.892-3.214-7.922-6.722
						C533.624,837.657,533.506,836.364,533.668,835.044z M552.814,754.183c3.539-9.926,7.539-19.818,11.887-29.402
						c2.16-4.755,7.762-6.861,12.518-4.704c4.762,2.162,6.866,7.764,4.701,12.517c-4.13,9.107-7.932,18.507-11.297,27.94
						c-1.754,4.919-7.163,7.484-12.082,5.73c-2.963-1.058-5.072-3.443-5.896-6.247C552.102,758.166,552.117,756.135,552.814,754.183
						z M589.128,679.412c5.62-8.924,11.68-17.711,18.007-26.114c3.143-4.172,9.069-5.005,13.241-1.865
						c4.177,3.146,5.005,9.071,1.865,13.24c-6.015,7.984-11.77,16.332-17.111,24.815c-2.782,4.419-8.621,5.745-13.038,2.962
						c-2.031-1.278-3.407-3.199-4.034-5.332C587.32,684.607,587.624,681.802,589.128,679.412z M640.887,614.345
						c7.434-7.479,15.275-14.727,23.304-21.541c3.981-3.379,9.948-2.892,13.328,1.091c3.374,3.974,2.888,9.947-1.093,13.326
						c-7.623,6.47-15.067,13.351-22.129,20.457c-3.681,3.703-9.666,3.721-13.369,0.04c-1.17-1.163-1.971-2.554-2.405-4.032
						C637.582,620.484,638.368,616.881,640.887,614.345z M705.712,562.215c8.878-5.643,18.115-10.98,27.458-15.866
						c4.628-2.42,10.343-0.631,12.761,3.998c2.41,4.614,0.631,10.339-3.997,12.759c-8.876,4.64-17.649,9.71-26.083,15.069
						c-4.405,2.801-10.25,1.498-13.049-2.908c-0.487-0.767-0.853-1.578-1.097-2.409
						C700.548,568.917,702.073,564.528,705.712,562.215z M780.324,525.628c7.29-2.635,14.753-5.077,22.177-7.258
						c2.69-0.79,5.377-1.547,8.07-2.275c5.039-1.361,10.312,1.53,11.592,6.661c1.365,5.04-1.617,10.232-6.66,11.595
						c-2.557,0.692-5.117,1.411-7.672,2.162c-7.059,2.074-14.149,4.393-21.082,6.898c-4.91,1.775-10.33-0.768-12.104-5.679
						c-0.066-0.185-0.128-0.37-0.183-0.556C773.065,532.419,775.598,527.335,780.324,525.628z"/>
					
						<linearGradient id="SVGID_00000058555049312621992730000000506847427303666851_" gradientUnits="userSpaceOnUse" x1="6054.0869" y1="1657.3719" x2="6085.1807" y2="1657.3719" gradientTransform="matrix(-0.2819 -0.9595 -0.9595 0.2819 3986.3567 6529.9468)">
						<stop  offset="0" style="stop-color:#B37CFF"/>
						<stop  offset="1" style="stop-color:#F895E7"/>
					</linearGradient>
					<path style="fill:url(#SVGID_00000058555049312621992730000000506847427303666851_);" d="M670,1171.434
						c0.53,1.804,1.599,3.466,3.178,4.725c4.005,3.189,8.152,6.353,12.328,9.404c4.216,3.082,10.132,2.163,13.212-2.053
						c3.08-4.217,2.167-10.129-2.053-13.212c-3.966-2.9-7.906-5.906-11.709-8.932c-4.082-3.253-10.031-2.579-13.284,1.506
						C669.679,1165.377,669.162,1168.582,670,1171.434z"/>
				</g>
				<g>
					
						<linearGradient id="SVGID_00000083066556068764450720000003919213504495265185_" gradientUnits="userSpaceOnUse" x1="-1961.9109" y1="-1072.9966" x2="139.2978" y2="1753.8088" gradientTransform="matrix(0.9056 0.4242 -0.4242 0.9056 1926.7653 1182.5217)">
						<stop  offset="0" style="stop-color:#A737D5"/>
						<stop  offset="1" style="stop-color:#EF497A"/>
					</linearGradient>
					<path style="fill:url(#SVGID_00000083066556068764450720000003919213504495265185_);" d="M831.078,1153.327
						c1.738,0.731,3.748,0.281,5.006-1.124l35.898-40.051c24.761,4.215,50.373,4.512,75.904,0.481l35.392,40.453
						c1.242,1.419,3.246,1.893,4.993,1.182l59.749-24.33c1.747-0.71,2.85-2.452,2.746-4.333l-2.935-53.67
						c21.085-14.951,39.205-33.055,53.977-53.369l53.664,3.582c1.881,0.125,3.635-0.957,4.366-2.694L1184.885,960
						c0.732-1.737,0.281-3.749-1.124-5.006l-40.052-35.897c4.216-24.761,4.514-50.373,0.482-75.905l40.453-35.391
						c1.419-1.242,1.895-3.246,1.183-4.992l-24.33-59.751c-0.712-1.746-2.452-2.848-4.334-2.745l-53.671,2.936
						c-14.951-21.086-33.055-39.205-53.37-53.977l3.582-53.665c0.125-1.881-0.956-3.635-2.694-4.366l-59.454-25.046
						c-1.737-0.732-3.748-0.28-5.005,1.122l-35.898,40.053c-24.761-4.217-50.372-4.513-75.904-0.482l-35.392-40.453
						c-1.241-1.419-3.246-1.895-4.992-1.184l-59.751,24.331c-1.746,0.711-2.849,2.451-2.745,4.334l2.935,53.67
						c-21.085,14.951-39.205,33.056-53.977,53.369l-53.664-3.582c-1.881-0.126-3.634,0.955-4.367,2.694l-25.045,59.454
						c-0.732,1.737-0.281,3.747,1.123,5.006l40.052,35.898c-4.216,24.761-4.513,50.372-0.482,75.905l-40.453,35.391
						c-1.417,1.241-1.893,3.246-1.183,4.992l24.331,59.75c0.711,1.746,2.451,2.849,4.334,2.746l53.669-2.935
						c14.951,21.086,33.056,39.204,53.37,53.977l-3.582,53.665c-0.126,1.881,0.957,3.635,2.694,4.366L831.078,1153.327z"/>
					<path style="opacity:0.56;fill:#FFFFFF;" d="M847.1,888.771c-4.968-35.41,19.795-68.26,55.208-73.23
						c17.154-2.409,34.219,2.009,48.049,12.437c13.83,10.424,22.776,25.613,25.18,42.77c4.968,35.41-19.795,68.26-55.208,73.231
						c-32.216,4.52-62.311-15.568-71.221-45.898C848.224,895.074,847.549,891.964,847.1,888.771z M941.249,840.058
						c-10.606-7.995-23.688-11.381-36.842-9.536c-27.147,3.81-46.138,28.999-42.327,56.147
						c3.802,27.159,28.999,46.138,56.149,42.329c27.147-3.81,46.138-28.999,42.327-56.147c-0.346-2.462-0.868-4.867-1.556-7.209
						C956.013,855.47,949.868,846.556,941.249,840.058z"/>
					<path style="opacity:0.56;fill:#FFFFFF;" d="M758.869,923.21c1.53,5.209,3.332,10.371,5.406,15.468l0,0
						c0.652,1.604,1.332,3.198,2.036,4.782c3.474,7.804,7.565,15.319,12.206,22.43c0.063,0.097,0.126,0.194,0.189,0.291
						c0.181,0.274,0.361,0.548,0.546,0.821c0.353,0.533,0.713,1.063,1.072,1.591c0.947,1.388,2.654,1.947,4.186,1.5
						c0.372-0.109,0.734-0.279,1.071-0.509c1.725-1.177,2.162-3.53,0.989-5.255c-6.061-8.876-11.203-18.466-15.287-28.502
						c-20.307-49.845-12.107-104.326,16.925-145.285c16.145-22.784,38.739-41.382,66.465-52.67
						c4.861-1.981,9.787-3.701,14.756-5.159c33.438-9.82,68.94-7.857,101.489,5.856c37.389,15.75,66.408,45.118,81.707,82.691
						c31.591,77.604-5.826,166.371-83.39,197.955c-4.782,1.948-9.646,3.646-14.568,5.09c-21.33,6.262-43.793,7.788-65.783,4.389
						c-0.568-0.087-1.125-0.045-1.642,0.109c-1.361,0.4-2.442,1.555-2.672,3.051c-0.313,2.066,1.09,3.999,3.161,4.316
						c23.086,3.569,46.671,1.969,69.064-4.606c5.167-1.516,10.271-3.299,15.291-5.341c81.435-33.159,120.693-126.408,87.546-207.813
						c-16.062-39.447-46.526-70.275-85.777-86.81c-34.17-14.397-71.441-16.457-106.545-6.149
						c-5.216,1.532-10.387,3.338-15.489,5.414c-39.449,16.065-70.279,46.527-86.814,85.777
						C750.609,850.819,748.554,888.1,758.869,923.21z"/>
				</g>
			</g>
			<g>
				<g style="opacity:0.3;">
					
						<linearGradient id="SVGID_00000067945458381600297060000008789542354687341212_" gradientUnits="userSpaceOnUse" x1="5588.9355" y1="1644.9902" x2="5604.3071" y2="1644.9902" gradientTransform="matrix(-0.2819 -0.9595 -0.9595 0.2819 3986.3567 6529.9468)">
						<stop  offset="0" style="stop-color:#B37CFF"/>
						<stop  offset="1" style="stop-color:#F895E7"/>
					</linearGradient>
					<path style="fill:url(#SVGID_00000067945458381600297060000008789542354687341212_);" d="M817.403,1625.581
						c0.712,2.424,2.949,4.192,5.605,4.19c4.957,0,9.983-0.151,14.936-0.45c3.218-0.194,5.669-2.958,5.478-6.18
						c-0.181-3.225-2.962-5.671-6.18-5.478c-4.719,0.284-9.509,0.428-14.24,0.43c-3.222-0.001-5.835,2.615-5.839,5.841
						C817.164,1624.507,817.249,1625.058,817.403,1625.581z"/>
					
						<linearGradient id="SVGID_00000157268255216820056200000008978917505792514451_" gradientUnits="userSpaceOnUse" x1="-779.3615" y1="648.4756" x2="-664.843" y2="648.4756" gradientTransform="matrix(0.9056 0.4242 -0.4242 0.9056 1926.7653 1182.5217)">
						<stop  offset="0" style="stop-color:#B37CFF"/>
						<stop  offset="1" style="stop-color:#F895E7"/>
					</linearGradient>
					<path style="fill:url(#SVGID_00000157268255216820056200000008978917505792514451_);" d="M861.993,1620.865
						c-0.587-3.171,1.502-6.219,4.675-6.809c8.002-1.492,16.021-3.411,23.829-5.705c1.647-0.484,3.294-0.989,4.941-1.511
						c3.073-0.971,6.355,0.731,7.329,3.806c0.805,2.944-0.731,6.355-3.807,7.333c-1.724,0.545-3.448,1.073-5.171,1.579
						c-8.185,2.405-16.593,4.417-24.985,5.979c-2.969,0.554-5.835-1.249-6.669-4.088
						C862.079,1621.259,862.034,1621.064,861.993,1620.865z M923.113,1596.181c8.976-4.102,17.78-8.796,26.161-13.954
						c2.749-1.69,6.34-0.835,8.033,1.913c1.677,2.735,0.836,6.344-1.913,8.034c-8.784,5.406-18.013,10.329-27.425,14.628
						c-2.934,1.34-6.399,0.049-7.742-2.885c-0.117-0.257-0.213-0.523-0.29-0.788C919.13,1600.388,920.44,1597.403,923.113,1596.181z
						 M973.515,1565.137c7.686-6.166,15.064-12.881,21.935-19.961c2.245-2.312,5.944-2.368,8.256-0.122
						c2.32,2.255,2.376,5.941,0.125,8.258c-7.204,7.424-14.948,14.467-23.004,20.934c-2.516,2.017-6.194,1.618-8.211-0.898
						c-0.489-0.615-0.839-1.297-1.047-2.008C970.922,1569.139,971.615,1566.664,973.515,1565.137z M1014.75,1522.659
						c5.948-7.875,11.463-16.194,16.378-24.714c1.616-2.796,5.186-3.753,7.978-2.139c2.785,1.61,3.751,5.181,2.141,7.975
						c-5.16,8.94-10.938,17.657-17.177,25.918c-1.943,2.574-5.609,3.083-8.182,1.14c-1.034-0.787-1.738-1.849-2.079-3.009
						C1013.305,1526.115,1013.59,1524.194,1014.75,1522.659z M1044.365,1471.4c3.852-9.081,7.177-18.484,9.888-27.952
						c0.885-3.098,4.12-4.893,7.221-4.006c3.102,0.887,4.901,4.118,4.006,7.222c-2.839,9.922-6.326,19.779-10.359,29.298
						c-1.262,2.968-4.688,4.355-7.655,3.096c-1.677-0.711-2.85-2.114-3.326-3.734
						C1043.772,1474.074,1043.818,1472.694,1044.365,1471.4z M1060.639,1414.506c1.526-9.736,2.457-19.656,2.766-29.491
						c0.1-3.221,2.797-5.755,6.019-5.653c3.222,0.103,5.747,2.788,5.656,6.021c-0.323,10.312-1.301,20.722-2.901,30.934
						c-0.503,3.185-3.488,5.364-6.672,4.864c-2.306-0.363-4.085-2.028-4.702-4.126
						C1060.569,1416.254,1060.499,1415.389,1060.639,1414.506z M1062.504,1355.385c-0.907-9.782-2.441-19.637-4.564-29.294
						c-0.688-3.15,1.304-6.265,4.453-6.955c3.148-0.694,6.215,1.306,6.96,4.451c2.219,10.124,3.829,20.457,4.78,30.717
						c0.296,3.212-2.066,6.057-5.277,6.356c-2.824,0.262-5.367-1.538-6.139-4.164
						C1062.613,1356.14,1062.54,1355.77,1062.504,1355.385z M1040.877,1262.429c2.888-1.437,6.39-0.261,7.828,2.628
						c3.977,7.994,7.583,16.344,10.713,24.792c0.483,1.282,0.943,2.564,1.398,3.851c1.153,2.995-0.527,6.378-3.579,7.444
						c-3.044,1.069-6.373-0.532-7.445-3.575c-0.421-1.208-0.858-2.414-1.318-3.636c-2.994-8.087-6.433-16.052-10.224-23.675
						c-0.157-0.314-0.282-0.637-0.377-0.959C1037.089,1266.629,1038.304,1263.707,1040.877,1262.429z"/>
				</g>
				<g style="opacity:0.3;">
					
						<linearGradient id="SVGID_00000152977819643468757100000014236414547170445479_" gradientUnits="userSpaceOnUse" x1="-1169.0525" y1="713.4888" x2="-1001.4214" y2="713.4888" gradientTransform="matrix(0.9056 0.4242 -0.4242 0.9056 1926.7653 1182.5217)">
						<stop  offset="0" style="stop-color:#B37CFF"/>
						<stop  offset="1" style="stop-color:#F895E7"/>
					</linearGradient>
					<path style="fill:url(#SVGID_00000152977819643468757100000014236414547170445479_);" d="M579.956,1445.21
						c-2.743-9.801-4.906-19.855-6.443-29.883c-0.484-3.186,1.701-6.167,4.892-6.656c3.191-0.489,6.143,1.729,6.656,4.892
						c1.461,9.563,3.529,19.152,6.145,28.503c0.871,3.105-0.946,6.329-4.05,7.196c-3.081,0.861-6.278-0.916-7.177-3.975
						C579.972,1445.262,579.964,1445.235,579.956,1445.21z M593.115,1466.49c2.978-1.234,6.395,0.181,7.627,3.16
						c3.715,8.962,8.008,17.791,12.766,26.239c1.565,2.798,0.588,6.371-2.228,7.954c-2.81,1.583-6.366,0.587-7.952-2.223
						c-4.985-8.854-9.486-18.106-13.375-27.499c-0.082-0.199-0.152-0.395-0.211-0.598
						C588.913,1470.699,590.327,1467.644,593.115,1466.49z M570.75,1384.859c-0.292-10.179,0.034-20.462,0.971-30.563
						c0.299-3.211,3.147-5.575,6.355-5.276c3.213,0.295,5.563,3.133,5.278,6.351c-0.896,9.637-1.207,19.443-0.933,29.155
						c0.092,3.224-2.448,5.911-5.666,6.004c-2.711,0.077-5.042-1.704-5.772-4.189
						C570.845,1385.871,570.764,1385.375,570.75,1384.859z M621.185,1519.144c2.594-1.915,6.252-1.361,8.166,1.233
						c5.759,7.806,12.054,15.334,18.717,22.375c2.21,2.344,2.108,6.041-0.226,8.254c-2.345,2.216-6.041,2.116-8.258-0.228
						c-6.989-7.383-13.595-15.28-19.632-23.468c-0.416-0.567-0.716-1.183-0.903-1.82
						C618.377,1523.203,619.158,1520.64,621.185,1519.144z M576.399,1324.094c2.16-9.928,4.951-19.827,8.295-29.428
						c1.061-3.046,4.392-4.654,7.438-3.594c3.046,1.061,4.66,4.388,3.594,7.438c-3.195,9.156-5.854,18.597-7.91,28.067
						c-0.686,3.15-3.795,5.151-6.951,4.464c-2.159-0.468-3.779-2.081-4.362-4.065
						C576.237,1326.07,576.185,1325.084,576.399,1324.094z M596.465,1266.449c4.484-9.14,9.564-18.089,15.094-26.597
						c1.756-2.703,5.37-3.471,8.074-1.712c2.703,1.753,3.474,5.372,1.714,8.08c-5.272,8.114-10.116,16.652-14.395,25.374
						c-1.42,2.896-4.92,4.091-7.816,2.67c-1.529-0.751-2.585-2.082-3.031-3.6C595.707,1269.313,595.796,1267.813,596.465,1266.449z
						 M629.757,1215.263c6.545-7.807,13.628-15.279,21.044-22.207c2.36-2.203,6.053-2.075,8.255,0.282
						c2.202,2.355,2.07,6.052-0.28,8.252c-7.076,6.605-13.828,13.73-20.063,21.176c-2.073,2.472-5.758,2.797-8.228,0.723
						c-0.92-0.767-1.538-1.756-1.851-2.823C628.102,1218.855,628.455,1216.82,629.757,1215.263z"/>
					
						<linearGradient id="SVGID_00000078034051079109838980000012861680228642876596_" gradientUnits="userSpaceOnUse" x1="5679.3657" y1="1782.6162" x2="5702.8813" y2="1782.6162" gradientTransform="matrix(-0.2819 -0.9595 -0.9595 0.2819 3986.3567 6529.9468)">
						<stop  offset="0" style="stop-color:#B37CFF"/>
						<stop  offset="1" style="stop-color:#F895E7"/>
					</linearGradient>
					<path style="fill:url(#SVGID_00000078034051079109838980000012861680228642876596_);" d="M660.251,1569.007
						c0.318,1.081,0.95,2.08,1.884,2.852c3.854,3.183,7.82,6.265,11.786,9.165c2.604,1.901,6.259,1.335,8.163-1.268
						c1.892-2.604,1.33-6.255-1.269-8.163c-3.784-2.764-7.567-5.706-11.246-8.741c-2.487-2.054-6.17-1.7-8.221,0.786
						C660.069,1565.192,659.723,1567.21,660.251,1569.007z"/>
				</g>
				<g>
					
						<linearGradient id="SVGID_00000136398124110594440280000008229550301114795437_" gradientUnits="userSpaceOnUse" x1="-2092.4143" y1="-939.9175" x2="8.7956" y2="1886.8895" gradientTransform="matrix(0.9056 0.4242 -0.4242 0.9056 1926.7653 1182.5217)">
						<stop  offset="0" style="stop-color:#A737D5"/>
						<stop  offset="1" style="stop-color:#EF497A"/>
					</linearGradient>
					<path style="fill:url(#SVGID_00000136398124110594440280000008229550301114795437_);" d="M771.048,1559.845
						c1.163,0.489,2.508,0.188,3.35-0.752l24.021-26.801c16.569,2.821,33.707,3.019,50.792,0.322l23.683,27.07
						c0.831,0.949,2.172,1.267,3.341,0.792l39.981-16.281c1.169-0.475,1.907-1.641,1.838-2.899l-1.965-35.914
						c14.11-10.005,26.234-22.119,36.119-35.712l35.91,2.396c1.259,0.084,2.432-0.64,2.922-1.802l16.759-39.783
						c0.49-1.162,0.188-2.508-0.752-3.35l-26.8-24.02c2.821-16.569,3.02-33.708,0.322-50.793l27.07-23.682
						c0.949-0.831,1.268-2.172,0.792-3.34l-16.281-39.983c-0.476-1.169-1.641-1.906-2.9-1.837l-35.914,1.964
						c-10.005-14.109-22.119-26.234-35.712-36.119l2.397-35.911c0.084-1.258-0.64-2.432-1.802-2.922l-39.784-16.76
						c-1.162-0.49-2.507-0.188-3.349,0.751l-24.022,26.801c-16.569-2.821-33.706-3.02-50.792-0.322l-23.683-27.07
						c-0.83-0.95-2.172-1.268-3.34-0.792l-39.983,16.281c-1.168,0.476-1.906,1.64-1.837,2.9l1.965,35.913
						c-14.11,10.005-26.234,22.12-36.119,35.713l-35.91-2.397c-1.258-0.084-2.432,0.64-2.922,1.802l-16.759,39.784
						c-0.49,1.163-0.188,2.508,0.751,3.35l26.801,24.021c-2.821,16.569-3.02,33.707-0.322,50.792l-27.07,23.682
						c-0.949,0.831-1.267,2.172-0.792,3.341l16.281,39.982c0.476,1.168,1.64,1.906,2.9,1.837l35.913-1.964
						c10.005,14.11,22.12,26.234,35.713,36.119l-2.397,35.91c-0.084,1.258,0.64,2.432,1.802,2.922L771.048,1559.845z"/>
					<path style="opacity:0.56;fill:#FFFFFF;" d="M780.999,1382.928c-1.644-11.687,1.366-23.312,8.471-32.734
						c7.099-9.42,17.447-15.513,29.133-17.151c24.118-3.385,46.453,13.46,49.885,37.606c3.379,24.123-13.491,46.497-37.605,49.878
						c-11.685,1.641-23.309-1.366-32.73-8.469c-7.658-5.774-13.117-13.693-15.772-22.731
						C781.77,1387.251,781.307,1385.111,780.999,1382.928z M820.228,1344.608c-8.598,1.206-16.208,5.686-21.435,12.619
						c-5.222,6.928-7.435,15.481-6.23,24.075l0,0c1.217,8.594,5.688,16.205,12.621,21.432c6.926,5.225,15.481,7.435,24.072,6.23
						c17.742-2.49,30.15-18.947,27.666-36.691c-0.227-1.601-0.565-3.157-1.008-4.665
						C851.45,1352.411,836.366,1342.343,820.228,1344.608z"/>
					<path style="opacity:0.56;fill:#FFFFFF;" d="M719.592,1406.901c1.042,3.546,2.272,7.065,3.691,10.56
						c2.822,6.937,6.353,13.593,10.506,19.8c0.189,0.277,0.377,0.555,0.566,0.833c1.462,2.144,4.099,3.007,6.464,2.315
						c0.574-0.169,1.133-0.431,1.653-0.786c2.664-1.817,3.333-5.449,1.527-8.114c-3.933-5.758-7.26-11.966-9.896-18.449
						l-0.001-0.003c-0.146-0.355-0.287-0.715-0.427-1.069c-6.1-15.401-8.13-31.738-6.179-47.756c1.06-8.695,3.299-17.3,6.712-25.61
						c0.028-0.068,0.055-0.135,0.083-0.203c0.088-0.207,0.17-0.413,0.259-0.617c10.198-24.203,29.209-42.99,53.534-52.894
						c3.147-1.284,6.334-2.396,9.551-3.341c21.647-6.356,44.63-5.084,65.706,3.791c24.204,10.198,42.985,29.211,52.889,53.533
						c9.889,24.312,9.744,51.051-0.448,75.256c-10.198,24.203-29.209,42.99-53.534,52.894c-3.094,1.263-6.243,2.36-9.427,3.296
						c-13.812,4.055-28.351,5.042-42.585,2.841c-0.878-0.135-1.738-0.07-2.536,0.168c-2.101,0.617-3.771,2.401-4.126,4.71
						c-0.484,3.188,1.688,6.171,4.882,6.664c15.927,2.462,32.199,1.358,47.646-3.174c3.567-1.048,7.088-2.275,10.55-3.685
						c27.218-11.084,48.486-32.1,59.895-59.182c11.404-27.078,11.609-56.971,0.504-84.191
						c-11.08-27.216-32.094-48.485-59.178-59.891c-23.574-9.934-49.288-11.355-73.506-4.243c-3.595,1.056-7.164,2.301-10.684,3.733
						C730.993,1295.545,703.889,1353.449,719.592,1406.901z"/>
				</g>
			</g>
		</g>
		<g>
			
				<linearGradient id="SVGID_00000089569897344709840480000007576355589486151073_" gradientUnits="userSpaceOnUse" x1="1014.0615" y1="1823.5553" x2="2929.2913" y2="1823.5553">
				<stop  offset="0" style="stop-color:#2B3582"/>
				<stop  offset="1" style="stop-color:#150E42"/>
			</linearGradient>
			<path style="fill:url(#SVGID_00000089569897344709840480000007576355589486151073_);" d="M1049.157,600.771
				c-11.296,455.666-47.932,1904.613-30.443,2461.598c1.853,59.008,49.156,106.369,108.161,108.3
				c291.841,9.55,1131.384,33.757,1608.737,13.729c99.425-4.171,178.49-84.706,180.554-184.197
				c9.92-478.28,31.804-1700.683-20.214-2316.929c-6.232-73.836-64.185-132.634-137.915-140.01
				c-317.828-31.795-1161.973-109.514-1574.376-82.751C1109.286,465.337,1051.005,526.26,1049.157,600.771z"/>
			
				<linearGradient id="SVGID_00000163050572542718029210000016186186971174872718_" gradientUnits="userSpaceOnUse" x1="2445.647" y1="1142.8657" x2="-1348.9971" y2="5997.1509">
				<stop  offset="0" style="stop-color:#FDF53F"/>
				<stop  offset="0.6645" style="stop-color:#E57A58"/>
				<stop  offset="1" style="stop-color:#D93C65"/>
			</linearGradient>
			<path style="fill:url(#SVGID_00000163050572542718029210000016186186971174872718_);" d="M1167.741,745.946
				c-15.94,384.048-66.216,1538.872-50.259,2011.318c2.332,69.055,55.219,124.89,122.246,128.927
				c275.971,16.619,983.813,53.266,1388.594,19.909c72.888-6.006,130.084-66.668,134.018-141.808
				c20.513-391.811,79.41-1458.657,64.114-1925.807c-2.44-74.523-58.535-135.385-130.702-142.053
				c-298.556-27.586-1065.352-93.224-1409.324-73.91C1221.857,626.146,1170.5,679.458,1167.741,745.946z"/>
			<path style="opacity:0.5;fill:#FFFFFF;" d="M1770.41,540.131L1770.41,540.131c0,13.982,10.897,25.513,24.859,26.244
				c68.931,3.61,263.11,13.824,349.892,18.859c17.11,0.992,30.54-14.388,27.295-31.218l-0.554-2.871
				c-2.215-11.483-11.739-20.127-23.385-21.194c-58.66-5.375-235.663-20.279-352.939-16.093
				C1781.491,514.362,1770.41,526.035,1770.41,540.131z"/>
			
				<linearGradient id="SVGID_00000090990756262948834490000018218572826566651833_" gradientUnits="userSpaceOnUse" x1="1981.6073" y1="2815.9285" x2="1374.4231" y2="4989.8711">
				<stop  offset="0" style="stop-color:#2B3582"/>
				<stop  offset="0.0933" style="stop-color:#29317C"/>
				<stop  offset="1" style="stop-color:#150E42"/>
			</linearGradient>
			<path style="fill:url(#SVGID_00000090990756262948834490000018218572826566651833_);" d="M2159.478,3103.881h-478.614
				c-8.339,0-15.099-6.76-15.099-15.099v-105.778c0-8.339,6.76-15.099,15.099-15.099h478.614c8.339,0,15.099,6.76,15.099,15.099
				v105.778C2174.577,3097.12,2167.817,3103.881,2159.478,3103.881z"/>
		</g>
		<g>
			
				<linearGradient id="SVGID_00000155865874905867014160000007211528380896157840_" gradientUnits="userSpaceOnUse" x1="1142.5762" y1="661.0978" x2="1954.9618" y2="1693.7932" gradientTransform="matrix(0.9994 0.0341 -0.0341 0.9994 55.6598 -36.993)">
				<stop  offset="0" style="stop-color:#53D8FF"/>
				<stop  offset="1" style="stop-color:#3840F7"/>
			</linearGradient>
			<path style="fill:url(#SVGID_00000155865874905867014160000007211528380896157840_);" d="M1338.345,1798.7l-42.61-1036.09
				c-1.468-21.08,14.419-39.376,35.503-40.767c74.637-4.922,266.214-0.242,635.915,108.547l35.407,952.536L1338.345,1798.7z"/>
			
				<linearGradient id="SVGID_00000067948672197705275090000007912662120651345571_" gradientUnits="userSpaceOnUse" x1="1435.9075" y1="928.0421" x2="2546.6316" y2="2649.2056" gradientTransform="matrix(0.9994 0.0341 -0.0341 0.9994 55.6598 -36.993)">
				<stop  offset="0" style="stop-color:#53D8FF"/>
				<stop  offset="1" style="stop-color:#3840F7"/>
			</linearGradient>
			<path style="fill:url(#SVGID_00000067948672197705275090000007912662120651345571_);" d="M1400.883,1800.837l-45.892-1095.332
				c-1.173-17.162,12.453-31.688,29.655-31.671c103.8,0.106,434.584,12.185,582.507,156.556l35.407,952.536L1400.883,1800.837z"/>
			<path style="opacity:0.69;fill:#FFFFFF;" d="M1438.039,1785.891c-13.587-0.464-24.618-11.137-25.53-24.702l-40.999-1039.737
				c-1.119-16.648,11.963-30.744,28.471-30.733c97.695,0.065,404.903,11.224,550.57,143.706c5.331,4.848,8.533,11.602,8.795,18.803
				l32.213,884.73c0.559,15.357-12.022,27.967-27.381,27.443L1438.039,1785.891z"/>
			
				<linearGradient id="SVGID_00000135686224114810893810000000613673726306796680_" gradientUnits="userSpaceOnUse" x1="1659.9188" y1="746.6099" x2="1641.9789" y2="1721.354" gradientTransform="matrix(0.9994 0.0341 -0.0341 0.9994 55.6598 -36.993)">
				<stop  offset="0" style="stop-color:#53D8FF"/>
				<stop  offset="1" style="stop-color:#3840F7"/>
			</linearGradient>
			<path style="fill:url(#SVGID_00000135686224114810893810000000613673726306796680_);" d="M1417.788,763.564l42.264,572.806
				c1.567,21.238,18.991,37.823,40.28,38.34l387.787,9.43c23.59,0.574,42.888-18.657,42.397-42.249l-9.939-476.879
				c-0.324-15.551-9.306-29.606-23.307-36.381c-63.809-30.874-251.846-113.063-438.84-109.539
				C1434.625,719.541,1416.036,739.819,1417.788,763.564z"/>
			
				<linearGradient id="SVGID_00000138551852626774820080000013404554592431989170_" gradientUnits="userSpaceOnUse" x1="1464.3719" y1="1449.9174" x2="1917.4081" y2="1449.9174" gradientTransform="matrix(0.9994 0.0341 -0.0341 0.9994 55.6598 -36.993)">
				<stop  offset="0" style="stop-color:#53D8FF"/>
				<stop  offset="1" style="stop-color:#3840F7"/>
			</linearGradient>
			<path style="fill:url(#SVGID_00000138551852626774820080000013404554592431989170_);" d="M1470.168,1461.708l2.617,14.609
				c1.646,9.189,9.498,15.973,18.829,16.268l410.176,12.954c12.027,0.38,21.599-9.987,20.263-21.946l-2.444-19.503
				c-1.101-9.85-9.025-17.039-18.934-17.241l-410.65-8.383C1477.554,1438.211,1467.969,1449.43,1470.168,1461.708z"/>
			
				<linearGradient id="SVGID_00000093161367387643478810000009289248927654591896_" gradientUnits="userSpaceOnUse" x1="1475.8993" y1="1563.903" x2="1918.2717" y2="1563.903" gradientTransform="matrix(0.9994 0.0341 -0.0341 0.9994 55.6598 -36.993)">
				<stop  offset="0" style="stop-color:#53D8FF"/>
				<stop  offset="1" style="stop-color:#3840F7"/>
			</linearGradient>
			<path style="fill:url(#SVGID_00000093161367387643478810000009289248927654591896_);" d="M1477.709,1568.407l1.244,19.692
				c0.661,10.459,9.373,18.583,19.853,18.515l401.243-2.637c11.6-0.076,20.639-10.081,19.544-21.628l-0.302-0.324
				c-0.932-9.828-8.673-17.137-18.536-17.555l-402.488-17.053C1486.541,1546.919,1476.969,1556.693,1477.709,1568.407z"/>
			
				<linearGradient id="SVGID_00000175292191703595077610000012457407132625346990_" gradientUnits="userSpaceOnUse" x1="1482.502" y1="1659.7155" x2="1935.8406" y2="1659.7155" gradientTransform="matrix(0.9994 0.0341 -0.0341 0.9994 55.6598 -36.993)">
				<stop  offset="0" style="stop-color:#53D8FF"/>
				<stop  offset="1" style="stop-color:#3840F7"/>
			</linearGradient>
			<path style="fill:url(#SVGID_00000175292191703595077610000012457407132625346990_);" d="M1480.672,1678.4l1.958,16.969
				c0.804,6.978,6.696,12.254,13.72,12.287l423.161,1.995c8.974,0.042,15.628-8.317,13.574-17.053l-6.986-29.717
				c-1.491-6.343-7.193-10.794-13.708-10.701l-413.906,5.944C1487.716,1658.278,1479.438,1667.701,1480.672,1678.4z"/>
			
				<linearGradient id="SVGID_00000085235547829437078170000002419693011651674805_" gradientUnits="userSpaceOnUse" x1="2899.8843" y1="1134.3372" x2="2408.7549" y2="1226.1368" gradientTransform="matrix(0.9994 0.0341 -0.0341 0.9994 55.6598 -36.993)">
				<stop  offset="0" style="stop-color:#53D8FF"/>
				<stop  offset="1" style="stop-color:#3840F7"/>
			</linearGradient>
			<path style="fill:url(#SVGID_00000085235547829437078170000002419693011651674805_);" d="M1988.556,828.276
				c0,0,286.363-194.947,646.614-86.334c21.555,6.499,36.227,26.503,36.076,49.016l-6.976,1014.573l-661.709-22.605
				L1988.556,828.276z"/>
			
				<linearGradient id="SVGID_00000039117938420966430000000003316589647698132356_" gradientUnits="userSpaceOnUse" x1="2070.0251" y1="1437.6844" x2="3984.0007" y2="-3.5368" gradientTransform="matrix(0.9994 0.0341 -0.0341 0.9994 55.6598 -36.993)">
				<stop  offset="0" style="stop-color:#53D8FF"/>
				<stop  offset="1" style="stop-color:#3840F7"/>
			</linearGradient>
			<path style="fill:url(#SVGID_00000039117938420966430000000003316589647698132356_);" d="M2613.923,731.615l6.923,1072.433
				l-618.286-21.122l-35.407-952.536c0,0,302.713-192.738,595.644-156.776C2591.954,677.194,2613.727,702.239,2613.923,731.615z"/>
			<path style="opacity:0.69;fill:#FFFFFF;" d="M2603.396,748.064l6.51,1008.374c0.109,16.929-13.891,30.547-30.81,29.969
				l-539.049-18.415c-16.443-0.562-29.657-13.736-30.268-30.177l-33.232-894.018c0,0,293.389-186.802,577.299-151.947
				C2582.104,695.319,2603.205,719.593,2603.396,748.064z"/>
			
				<linearGradient id="SVGID_00000019677948303564351970000002051345580211081623_" gradientUnits="userSpaceOnUse" x1="2294.1484" y1="758.3237" x2="2276.209" y2="1733.0447" gradientTransform="matrix(0.9994 0.0341 -0.0341 0.9994 55.6598 -36.993)">
				<stop  offset="0" style="stop-color:#53D8FF"/>
				<stop  offset="1" style="stop-color:#3840F7"/>
			</linearGradient>
			<path style="fill:url(#SVGID_00000019677948303564351970000002051345580211081623_);" d="M2096.939,842.236
				c-31.098,8.267-52.114,37.155-50.405,69.288c6.984,131.299,24.66,460.4,31.985,566.963c1.326,19.286,17.364,34.214,36.695,34.196
				l400.032-0.374c23.54-0.022,42.594-19.144,42.531-42.685l-1.805-676.24c-0.058-21.712-17.117-39.563-38.808-40.542
				C2452.79,749.94,2206.649,813.072,2096.939,842.236z"/>
			
				<linearGradient id="SVGID_00000085969784254897343680000002081288472651786420_" gradientUnits="userSpaceOnUse" x1="2076.4524" y1="1567.1256" x2="2552.1111" y2="1567.1256" gradientTransform="matrix(0.9994 0.0341 -0.0341 0.9994 55.6598 -36.993)">
				<stop  offset="0" style="stop-color:#53D8FF"/>
				<stop  offset="1" style="stop-color:#3840F7"/>
			</linearGradient>
			<path style="fill:url(#SVGID_00000085969784254897343680000002081288472651786420_);" d="M2097.01,1581.577l437.509,14.946
				c10.456,0.357,18.642,9.123,18.285,19.578l-0.009,0.254c-0.357,10.456-9.123,18.642-19.579,18.285l-437.509-14.946
				c-10.456-0.357-18.642-9.122-18.284-19.578l0.008-0.255C2077.79,1589.407,2086.555,1581.22,2097.01,1581.577z"/>
			
				<linearGradient id="SVGID_00000014621480115413509730000009166798117240653488_" gradientUnits="userSpaceOnUse" x1="2076.052" y1="1660.0101" x2="2552.5239" y2="1660.0101" gradientTransform="matrix(0.9994 0.0341 -0.0341 0.9994 55.6598 -36.993)">
				<stop  offset="0" style="stop-color:#53D8FF"/>
				<stop  offset="1" style="stop-color:#3840F7"/>
			</linearGradient>
			<path style="fill:url(#SVGID_00000014621480115413509730000009166798117240653488_);" d="M2074.071,1687.05l0.048,11.835
				c0.041,10.162,8.092,18.481,18.247,18.855l437.832,16.093c10.757,0.396,19.681-8.241,19.638-19.005l0,0
				c-0.04-9.965-7.792-18.195-17.737-18.83l-437.879-27.928C2083.276,1667.372,2074.028,1676.084,2074.071,1687.05z"/>
		</g>
		<g>
			<g>
				
					<linearGradient id="SVGID_00000179631976798262397530000011762905616500779190_" gradientUnits="userSpaceOnUse" x1="923.6603" y1="1818.5701" x2="727.8241" y2="2179.8538" gradientTransform="matrix(0 -1 1 0 -825.4786 2889.9031)">
					<stop  offset="0" style="stop-color:#A737D5"/>
					<stop  offset="1" style="stop-color:#EF497A"/>
				</linearGradient>
				<path style="fill:url(#SVGID_00000179631976798262397530000011762905616500779190_);" d="M1336.069,2155.961
					c0,0-191.763,21.907-253.792-45.007c-2.759-2.976,0.378-6.956,5.392-6.956h36.456c8.712,0,13.202-7.376,7.228-11.883
					c-19.101-14.41-48.113-40.182-54.157-67.512c-1.613-7.291,8.622-12.979,18.027-9.852
					c50.421,16.766,191.724,60.663,284.293,58.982L1336.069,2155.961z"/>
				
					<linearGradient id="SVGID_00000079448374395062185310000005885684473482728346_" gradientUnits="userSpaceOnUse" x1="1227.8562" y1="1908.3706" x2="958.1247" y2="2426.0808" gradientTransform="matrix(0 -1 1 0 -825.4786 2889.9031)">
					<stop  offset="0" style="stop-color:#A737D5"/>
					<stop  offset="1" style="stop-color:#EF497A"/>
				</linearGradient>
				<path style="fill:url(#SVGID_00000079448374395062185310000005885684473482728346_);" d="M1336.018,2227.008l1226.523,41.834
					c47.415,1.617,86.732-36.382,86.732-83.824v-97.755c0-46.322-37.551-83.872-83.872-83.872H1364.147
					c-28.17,0-53.116,12.772-62.226,31.719c-17.079,35.519-38.392,95.908-23.575,155.215
					C1283.399,2210.545,1307.183,2225.727,1336.018,2227.008z"/>
				
					<linearGradient id="SVGID_00000051355499712288525950000014308038225337883045_" gradientUnits="userSpaceOnUse" x1="940.7888" y1="2835.4514" x2="392.8669" y2="3907.3242" gradientTransform="matrix(0 -1 1 0 -825.4786 2889.9031)">
					<stop  offset="0" style="stop-color:#CB236D"/>
					<stop  offset="1" style="stop-color:#4C246D"/>
				</linearGradient>
				<path style="fill:url(#SVGID_00000051355499712288525950000014308038225337883045_);" d="M2221.069,2222.05l280.919,9.094
					c23.283,0.754,42.739-12.46,42.739-29.026v-135.593c0-16.047-18.302-29.056-40.879-29.056h-280.92
					c-22.576,0-40.878,13.009-40.878,29.056v126.5C2182.05,2208.557,2199.238,2221.343,2221.069,2222.05z"/>
			</g>
			<g>
				
					<linearGradient id="SVGID_00000129927425650795957450000001743036571775156415_" gradientUnits="userSpaceOnUse" x1="1293.9747" y1="2160.8181" x2="497.5457" y2="3773.198" gradientTransform="matrix(0 -1 1 0 -825.4786 2889.9031)">
					<stop  offset="0" style="stop-color:#CB236D"/>
					<stop  offset="1" style="stop-color:#4C246D"/>
				</linearGradient>
				<path style="fill:url(#SVGID_00000129927425650795957450000001743036571775156415_);" d="M2591.281,1867.371
					c0-41.42-33.578-74.998-74.999-74.998H1386.613c-23.236,0-43.926,10.721-50.716,26.517
					c-30.378,70.666-13.368,132.134,0.74,164.397c6.253,14.299,24.789,24.063,45.855,24.063h1133.789
					c41.42,0,74.999-33.578,74.999-74.998V1867.371z"/>
				
					<linearGradient id="SVGID_00000111162635061444816010000005813573964693298103_" gradientUnits="userSpaceOnUse" x1="1095.3885" y1="2081.4006" x2="919.8331" y2="2426.5608" gradientTransform="matrix(0 -1 1 0 -825.4786 2889.9031)">
					<stop  offset="0" style="stop-color:#FDF53F"/>
					<stop  offset="1" style="stop-color:#D93C65"/>
				</linearGradient>
				<path style="fill:url(#SVGID_00000111162635061444816010000005813573964693298103_);" d="M1402.171,1986.075l137.473-5.215
					c17.131-0.65,30.553-10.713,30.553-22.906V1842.84c0-12.379-13.819-22.526-31.225-22.927l-135.647-3.132
					c-15.551-0.359-29.293,7.196-32.573,18.007c-8.482,27.962-20.174,82.975-1.647,133.891
					C1372.981,1979.334,1386.709,1986.662,1402.171,1986.075z"/>
				
					<linearGradient id="SVGID_00000162335434335050846950000004242537550571486861_" gradientUnits="userSpaceOnUse" x1="1141.6917" y1="2155.946" x2="981.5197" y2="2470.8608" gradientTransform="matrix(0 -1 1 0 -825.4786 2889.9031)">
					<stop  offset="0" style="stop-color:#FDF53F"/>
					<stop  offset="1" style="stop-color:#D93C65"/>
				</linearGradient>
				<path style="fill:url(#SVGID_00000162335434335050846950000004242537550571486861_);" d="M1629.443,1977.132L1629.443,1977.132
					c16.919-0.832,30.046-10.83,30.046-22.885V1844.04c0-12.85-14.848-23.193-32.922-22.935l0,0
					c-17.567,0.251-31.624,10.446-31.624,22.935v110.208C1594.943,1967.54,1610.787,1978.05,1629.443,1977.132z"/>
			</g>
			
				<linearGradient id="SVGID_00000177466993155852642380000007066037772175756728_" gradientUnits="userSpaceOnUse" x1="566.897" y1="2204.052" x2="110.8202" y2="3004.0549" gradientTransform="matrix(0 -1 1 0 -825.4786 2889.9031)">
				<stop  offset="0" style="stop-color:#CB236D"/>
				<stop  offset="1" style="stop-color:#4C246D"/>
			</linearGradient>
			<path style="fill:url(#SVGID_00000177466993155852642380000007066037772175756728_);" d="M1392.891,2840.76l1127.273,7.987
				c41.627,0.295,75.529-33.368,75.529-74.996v-231.468c0-42.136-34.703-76.004-76.827-74.976l-1101.24,26.866
				c-26.114,0.83-48.856,12.816-57.654,30.312c-23.989,47.699-59.154,151.584-9.743,292.257
				C1355.131,2830.696,1372.658,2840.574,1392.891,2840.76z"/>
			<g>
				
					<linearGradient id="SVGID_00000069399847498565938800000008819272115943478962_" gradientUnits="userSpaceOnUse" x1="1964.9938" y1="1871.4851" x2="1952.3196" y2="2707.9404">
					<stop  offset="0" style="stop-color:#A737D5"/>
					<stop  offset="1" style="stop-color:#EF497A"/>
				</linearGradient>
				<path style="fill:url(#SVGID_00000069399847498565938800000008819272115943478962_);" d="M1412.621,2497.406l1104.466-24.972
					c40.75-0.921,73.303-34.219,73.303-74.979v-80.111c0-40.996-32.918-74.396-73.91-74.99l-1113.974-16.16
					c-25.133-0.473-47.879,10.942-55.108,28.058c-31.225,73.927-34.288,147.359,12.35,219.915
					C1369.166,2488.819,1389.977,2498.072,1412.621,2497.406z"/>
				<path style="opacity:0.57;fill:#FFFFFF;" d="M1446.559,2476.701l49.171-2.706c14.895-0.82,26.127-9.964,25.259-20.566
					l-15.205-185.749c-0.798-9.751-11.627-17.576-25.331-18.305l-33.966-1.807c-15.907-0.846-29.469,8.1-29.469,19.438v190.261
					C1417.02,2468.626,1430.628,2477.578,1446.559,2476.701z"/>
				<path style="opacity:0.57;fill:#FFFFFF;" d="M1564.062,2469.034h17.947c13.857,0,24.925-8.202,24.348-18.043l-10.44-177.935
					c-0.544-9.277-11.285-16.6-24.348-16.6h-19.037c-13.899,0-24.983,8.25-24.344,18.118l11.53,177.935
					C1540.317,2461.756,1551.039,2469.034,1564.062,2469.034z"/>
			</g>
			
				<linearGradient id="SVGID_00000085250395405761841990000009165789384199215788_" gradientUnits="userSpaceOnUse" x1="2190.4766" y1="2032.5847" x2="1682.7427" y2="3563.8486">
				<stop  offset="0" style="stop-color:#CB236D"/>
				<stop  offset="1" style="stop-color:#4C246D"/>
			</linearGradient>
			<path style="fill:url(#SVGID_00000085250395405761841990000009165789384199215788_);" d="M1847.605,2816.489l251.197,13.854
				c20.82,1.148,38.216-18.982,38.216-44.221v-206.57c0-24.447-16.365-44.267-36.553-44.267h-251.197
				c-20.188,0-36.554,19.819-36.554,44.267v192.718C1812.714,2795.933,1828.084,2815.413,1847.605,2816.489z"/>
			
				<linearGradient id="SVGID_00000031190716498131342620000005695972960142134687_" gradientUnits="userSpaceOnUse" x1="2294.2761" y1="2399.5952" x2="1786.5416" y2="3930.8611">
				<stop  offset="0" style="stop-color:#CB236D"/>
				<stop  offset="1" style="stop-color:#4C246D"/>
			</linearGradient>
			
				<rect x="2178.358" y="2481" style="fill:url(#SVGID_00000031190716498131342620000005695972960142134687_);" width="56.965" height="364.579"/>
		</g>
		<g>
			<g>
				
					<linearGradient id="SVGID_00000141415958523139000530000009209162560294290867_" gradientUnits="userSpaceOnUse" x1="2016.8247" y1="2116.9565" x2="3168.248" y2="2116.9565" gradientTransform="matrix(0.9732 -0.23 0.23 0.9732 -1951.8152 864.5567)">
					<stop  offset="0" style="stop-color:#2B3582"/>
					<stop  offset="1" style="stop-color:#150E42"/>
				</linearGradient>
				<path style="fill:url(#SVGID_00000141415958523139000530000009209162560294290867_);" d="M1528.681,1933.537l-952.225,625.302
					c-39.938,26.225-49.068,80.911-19.82,118.69l4.802,6.203c25.88,33.425,74.022,39.394,107.279,13.301l901.024-706.948
					L1528.681,1933.537z"/>
				
					<ellipse transform="matrix(0.9732 -0.2299 0.2299 0.9732 -313.789 491.887)" style="opacity:0.5;fill:#FFFFFF;" cx="1953.651" cy="1592.322" rx="528.442" ry="518.909"/>
				
					<linearGradient id="SVGID_00000021837494179477726380000009138239249587485832_" gradientUnits="userSpaceOnUse" x1="1330.7089" y1="1462.7957" x2="2504.6541" y2="1462.7957" gradientTransform="matrix(0.9942 0.108 -0.108 0.9942 205.0747 -69.0995)">
					<stop  offset="0" style="stop-color:#2B3582"/>
					<stop  offset="1" style="stop-color:#150E42"/>
				</linearGradient>
				<path style="fill:url(#SVGID_00000021837494179477726380000009138239249587485832_);" d="M1820.894,1030.385
					c-316.05,74.667-512.822,386.785-439.503,697.133c73.32,310.35,388.967,501.407,705.017,426.74
					c316.051-74.667,512.823-386.782,439.503-697.133C2452.591,1146.778,2136.944,955.718,1820.894,1030.385z M2066.906,2071.71
					c-269.622,63.699-538.903-99.292-601.452-364.053c-62.55-264.759,105.318-531.028,374.941-594.725
					c269.625-63.699,538.905,99.294,601.454,364.053C2504.398,1741.747,2336.531,2008.012,2066.906,2071.71z"/>
				<path style="fill:#FFFFFF;" d="M1440.439,1784.697c-0.684,0-1.33-0.42-1.584-1.097c-4.82-12.849-9.201-26.067-13.022-39.286
					c-0.259-0.899,0.258-1.834,1.156-2.095c0.902-0.261,1.835,0.261,2.095,1.156c3.794,13.136,8.149,26.269,12.939,39.035
					c0.327,0.876-0.116,1.85-0.99,2.177C1440.837,1784.664,1440.637,1784.697,1440.439,1784.697z M1407.242,1626.641
					c-0.892,0-1.639-0.697-1.687-1.599c-2.048-37.509-0.069-75.347,5.884-112.473c16.856-105.128,64.461-202.605,137.669-281.897
					c74.951-81.182,171.955-137.651,280.524-163.299c102.104-24.128,208.069-19.212,306.431,14.21
					c0.885,0.301,1.359,1.262,1.059,2.148c-0.301,0.882-1.259,1.358-2.146,1.057c-97.762-33.22-203.077-38.1-304.568-14.124
					c-107.91,25.496-204.323,81.618-278.816,162.301c-72.752,78.803-120.063,175.672-136.814,280.139
					c-5.916,36.887-7.881,74.485-5.848,111.752c0.051,0.932-0.662,1.731-1.596,1.781
					C1407.304,1626.641,1407.273,1626.641,1407.242,1626.641z"/>
				<path style="fill:#FFFFFF;" d="M628.46,2688.79c-0.056,0-0.114-0.003-0.172-0.01c-34.333-3.476-55.248-17.653-62.167-42.144
					c-6.966-24.656,3.246-51.497,25.413-66.787l113.565-78.331c0.767-0.539,1.82-0.344,2.352,0.429
					c0.53,0.77,0.337,1.824-0.433,2.352l-113.565,78.331c-20.973,14.471-30.65,39.821-24.078,63.087
					c6.504,23.018,26.439,36.375,59.253,39.699c0.93,0.092,1.607,0.922,1.513,1.854
					C630.053,2688.139,629.318,2688.79,628.46,2688.79z"/>
				<path style="fill:#FFFFFF;" d="M741.055,2480.466c-0.537,0-1.065-0.254-1.394-0.73c-0.53-0.77-0.337-1.824,0.431-2.352
					l14.719-10.156c0.77-0.542,1.822-0.34,2.354,0.429c0.53,0.77,0.337,1.824-0.431,2.352l-14.719,10.156
					C741.721,2480.37,741.386,2480.466,741.055,2480.466z"/>
			</g>
			<g>
				
					<linearGradient id="SVGID_00000096046351270072026470000018050291610351651004_" gradientUnits="userSpaceOnUse" x1="676.0354" y1="3216.5122" x2="940.8159" y2="2534.873">
					<stop  offset="0" style="stop-color:#F9B776"/>
					<stop  offset="1" style="stop-color:#F47960"/>
				</linearGradient>
				<path style="fill:url(#SVGID_00000096046351270072026470000018050291610351651004_);" d="M886.046,2595.117l-93.787,23.447
					l23.446,175.852c0,0-35.17,35.171-46.893,82.065c-11.723,46.893-22.533,243.793-22.533,243.793l-22.254,13.454l-2.707,11.231
					l64.745,87.054l-10.737-69.287c-1.705-10.999,1.248-33.305,0.318-33.772c35.171-93.788,110.401-357.983,110.401-357.983
					V2595.117z"/>
				
					<linearGradient id="SVGID_00000034800060766154076530000008489095271362208933_" gradientUnits="userSpaceOnUse" x1="672.0125" y1="5409.0469" x2="1547.1508" y2="-4819.1372">
					<stop  offset="0" style="stop-color:#F9B776"/>
					<stop  offset="1" style="stop-color:#F47960"/>
				</linearGradient>
				<path style="fill:url(#SVGID_00000034800060766154076530000008489095271362208933_);" d="M913.45,3146.164
					c-1.015-0.017-2.012,0.064-3.033,0.001c4.532-56.54,25.245-305.377,45.97-398.643c23.446-105.511-35.17-316.534-35.17-316.534
					L815.704,2536.5l58.618,199.298c-40.17,60.254,6.552,413.122,5.546,412.969l0.064,0.784l-15.295,21.031l1.86,11.402
					l93.436,55.137l-36.764-59.702C917.333,3167.941,914.108,3157.197,913.45,3146.164z"/>
				
					<linearGradient id="SVGID_00000076593979853198828590000007166288583605601982_" gradientUnits="userSpaceOnUse" x1="703.4699" y1="2178.6472" x2="815.7041" y2="2178.6472">
					<stop  offset="0" style="stop-color:#F9B776"/>
					<stop  offset="1" style="stop-color:#F47960"/>
				</linearGradient>
				<path style="fill:url(#SVGID_00000076593979853198828590000007166288583605601982_);" d="M794.773,1963.041
					c0,0-205.432,285.056,0,431.213l20.931-18.659c0,0-101.99-120.242,0-267.435L794.773,1963.041z"/>
				
					<linearGradient id="SVGID_00000076565082525369954170000010104091746711322277_" gradientUnits="userSpaceOnUse" x1="-568.8473" y1="3028.5317" x2="-667.0579" y2="3194.7344" gradientTransform="matrix(-1 0 0 1 226.0466 0)">
					<stop  offset="0" style="stop-color:#53D8FF"/>
					<stop  offset="1" style="stop-color:#3840F7"/>
				</linearGradient>
				<path style="fill:url(#SVGID_00000076565082525369954170000010104091746711322277_);" d="M966.087,3245.769h-29.818
					c-5.582,0-10.845-2.562-14.249-6.985c-9.295-12.079-28.553-35.644-37.762-36.258c-12.397-0.828-10.811,43.244-10.811,43.244
					h-6.949l-8.802-54.765c-2.214-13.779,4.638-27.429,17.011-33.885l0,0c0,0,2.834,20.957,18.2,30.227
					c15.365,9.271,62.528,42.468,62.528,42.468s5.777-0.823,12.119,0.322C976.961,3231.837,975.647,3245.769,966.087,3245.769z"/>
				
					<linearGradient id="SVGID_00000060732888549315498230000010877770940047856304_" gradientUnits="userSpaceOnUse" x1="-2108.0852" y1="2375.6372" x2="-2206.2905" y2="2541.8311" gradientTransform="matrix(-0.9218 -0.3878 -0.3878 0.9218 -307.1377 -31.6312)">
					<stop  offset="0" style="stop-color:#53D8FF"/>
					<stop  offset="1" style="stop-color:#3840F7"/>
				</linearGradient>
				<path style="fill:url(#SVGID_00000060732888549315498230000010877770940047856304_);" d="M788.38,3242.37l-27.484-11.563
					c-5.144-2.164-9.003-6.567-10.425-11.964c-3.885-14.737-12.498-43.927-20.748-48.065c-11.105-5.571-26.734,35.669-26.734,35.669
					l-6.405-2.695l13.123-53.892c3.301-13.56,14.911-23.485,28.819-24.637l0,0c0,0-5.514,20.417,5.054,34.92
					c10.569,14.502,41.168,63.392,41.168,63.392s5.644,1.48,11.046,4.996C803.806,3233.745,797.193,3246.078,788.38,3242.37z"/>
				
					<linearGradient id="SVGID_00000091700240684759811240000005429736142154728098_" gradientUnits="userSpaceOnUse" x1="1006.7142" y1="2172.7905" x2="751.7218" y2="2769.2898">
					<stop  offset="0" style="stop-color:#CB236D"/>
					<stop  offset="1" style="stop-color:#4C246D"/>
				</linearGradient>
				<path style="fill:url(#SVGID_00000091700240684759811240000005429736142154728098_);" d="M948.086,2252.582
					c0,0-3.448,21.132,1.603,79.226c5.052,58.094,29.199,194.488,24.283,324.987c0,0-68.646,15.997-187.909,8.42
					c0,0-50.333-203.749-38.07-281.207c12.261-77.458,78.774-133.026,78.774-133.026L948.086,2252.582z"/>
				
					<linearGradient id="SVGID_00000013176431308135498680000002550621481419131041_" gradientUnits="userSpaceOnUse" x1="826.0414" y1="1887.7448" x2="905.7535" y2="1887.7448">
					<stop  offset="0" style="stop-color:#F9B776"/>
					<stop  offset="1" style="stop-color:#F47960"/>
				</linearGradient>
				<polygon style="fill:url(#SVGID_00000013176431308135498680000002550621481419131041_);" points="897.363,1864.385 
					905.753,1963.041 826.041,1963.041 845.862,1812.449 				"/>
				
					<linearGradient id="SVGID_00000100368593476125554790000009248210567241832893_" gradientUnits="userSpaceOnUse" x1="969.6551" y1="1974.1088" x2="547.5496" y2="2515.625">
					<stop  offset="0" style="stop-color:#53D8FF"/>
					<stop  offset="1" style="stop-color:#3840F7"/>
				</linearGradient>
				<path style="fill:url(#SVGID_00000100368593476125554790000009248210567241832893_);" d="M802.428,1949.399
					c27.51-1.518,89.017-4.325,132.591-1.95c22.941,1.25,42.159,17.709,46.852,40.201l10.628,50.93
					c3.959,18.97,3.367,38.608-1.727,57.305l-42.687,156.697c0,0-37.967,22.816-121.319-1.6c0,0-73.2-174.556-43.237-286.219
					C785.857,1956.091,793.462,1949.893,802.428,1949.399z"/>
				
					<linearGradient id="SVGID_00000171679671207419204100000015880913469948928145_" gradientUnits="userSpaceOnUse" x1="1293.7224" y1="1933.1902" x2="604.3125" y2="2328.1404">
					<stop  offset="0" style="stop-color:#F9B776"/>
					<stop  offset="1" style="stop-color:#F47960"/>
				</linearGradient>
				<path style="fill:url(#SVGID_00000171679671207419204100000015880913469948928145_);" d="M979.789,1978.513
					c11.741,30.93,22.345,63.362,33.739,93.735c5.793,15.202,11.669,30.105,17.956,43.792c3.179,6.816,6.672,13.079,9.877,18.759
					c3.21,5.621,6.823,10.297,8.706,12.449c0.369,0.319-0.868,0.563-1.281,0.583c-0.249,0.031,7.938,1.343,10.449,1.763l9.813-0.058
					c14.064-0.724,29.994-3.203,45.972-6.308c32.229-6.009,65.737-14.446,100.142-20.829l0.264-0.049
					c6.583-1.221,12.91,3.126,14.132,9.709c0.805,4.342-0.829,8.584-3.91,11.312c-13.872,12.211-28.578,22.243-43.831,32.007
					c-7.677,4.695-15.489,9.297-23.429,13.715c-8.098,4.127-16.217,8.287-24.651,12.134c-16.98,7.399-34.521,14.213-54.726,18.592
					c-5.311,0.888-10.552,1.82-16.016,2.552c-6.128,0.213-11.693,0.756-18.387,0.368c-3.555-0.352-7.126-0.788-10.688-1.306
					c-1.899-0.334-3.295-0.371-5.596-1.005c-2.441-0.732-4.877-1.553-7.278-2.454c-5.018-1.8-8.261-3.981-12.337-6.248
					c-3.385-2.231-6.471-4.565-9.463-6.957c-11.048-9.41-17.907-18.749-23.953-27.715c-6.029-8.958-10.808-17.933-15.098-26.731
					c-8.605-17.569-15.325-34.979-20.776-52.509c-11.049-35.129-18.535-69.655-21.695-106.328
					c-1.513-17.565,11.5-33.032,29.067-34.545c14.538-1.253,27.639,7.447,32.58,20.442L979.789,1978.513z"/>
				
					<linearGradient id="SVGID_00000124142766083298174150000000197374674703355830_" gradientUnits="userSpaceOnUse" x1="1362.2227" y1="2052.7634" x2="672.8161" y2="2447.7119">
					<stop  offset="0" style="stop-color:#F9B776"/>
					<stop  offset="1" style="stop-color:#F47960"/>
				</linearGradient>
				<path style="fill:url(#SVGID_00000124142766083298174150000000197374674703355830_);" d="M1204.33,2138.163l14.224-33.765
					l74.866-18.655c0,0,5.99,12.978-25.455,18.655c0,0,11.231,12.415,5.241,27.014
					C1267.218,2146.01,1203.582,2160.636,1204.33,2138.163z"/>
				
					<linearGradient id="SVGID_00000113339281509442285930000002730783232181354932_" gradientUnits="userSpaceOnUse" x1="958.8065" y1="1887.713" x2="803.9053" y2="1661.2065">
					<stop  offset="0" style="stop-color:#F9B776"/>
					<stop  offset="1" style="stop-color:#F47960"/>
				</linearGradient>
				<path style="fill:url(#SVGID_00000113339281509442285930000002730783232181354932_);" d="M931.113,1750.448
					c2.846,1.678,25.272,80.774,6.48,113.936c-18.792,33.162-76.18-3.983-91.731-51.936
					C830.309,1764.496,855.296,1705.735,931.113,1750.448z"/>
				
					<linearGradient id="SVGID_00000049909409675362819030000010587753864815646654_" gradientUnits="userSpaceOnUse" x1="451.1158" y1="1950.0649" x2="955.8247" y2="1950.0649">
					<stop  offset="0" style="stop-color:#2B3582"/>
					<stop  offset="1" style="stop-color:#150E42"/>
				</linearGradient>
				<path style="fill:url(#SVGID_00000049909409675362819030000010587753864815646654_);" d="M782.378,1812.449
					c-12.872,63.066-55.522,45.806-85.729,73.865c-48.958,45.475-118.996-1.404-187.084,41.69
					c-49.154,31.11-72.837,110.703-49.249,174.964c32.672,89.004,144.321,125.606,202.181,98.498
					c55.297-25.908,47.423-103.503,121.825-133.49c31.587-12.731,47.18-4.459,66.097-23.328
					c33.116-33.032,24.18-97.132,20.737-121.827c-7.47-53.583-25.436-63.284-16.849-86.833c16.7-45.804,94.598-36.353,101.09-68.69
					c5.911-29.446-50.55-85.261-103.682-76.466C769.506,1704.44,788.112,1784.353,782.378,1812.449z"/>
				<path style="opacity:0.6;fill:#FFFFFF;" d="M484.866,2087.894c-0.975,0-1.853-0.66-2.093-1.648
					c-10.526-43.695-5.751-79.531,14.199-106.513c33.106-44.779,97.449-49.211,98.096-49.248c1.013-0.168,2.203,0.828,2.278,2.018
					c0.072,1.185-0.828,2.206-2.017,2.277c-0.627,0.039-63.023,4.368-94.915,47.537c-19.143,25.906-23.67,60.535-13.456,102.919
					c0.278,1.156-0.432,2.32-1.589,2.598C485.203,2087.873,485.03,2087.894,484.866,2087.894z"/>
				<path style="opacity:0.72;fill:#FFFFFF;" d="M695.603,2127.895c-0.088,0-0.181-0.013-0.273-0.033
					c-0.572-0.151-0.917-0.74-0.77-1.317c10.253-39.335,28.243-66.654,53.466-81.203c18.347-10.584,35.531-11.568,50.688-12.437
					c14.617-0.842,27.239-1.569,37.399-10.602c21.001-18.676,19.785-63.577-3.615-133.459c-0.189-0.564,0.118-1.173,0.681-1.362
					c0.568-0.189,1.173,0.118,1.362,0.681c23.699,70.774,24.708,116.445,3.001,135.747c-10.719,9.534-23.686,10.282-38.705,11.144
					c-14.918,0.858-31.829,1.829-49.737,12.157c-24.703,14.246-42.353,41.123-52.454,79.883
					C696.52,2127.575,696.083,2127.895,695.603,2127.895z"/>
				<path style="opacity:0.72;fill:#FFFFFF;" d="M812.83,1796.798c-0.113,0-0.227-0.016-0.345-0.054
					c-0.564-0.189-0.866-0.802-0.676-1.365c8.149-24.246,31.631-20.644,56.511-16.819c15.746,2.422,32.025,4.914,45.835,0.828
					c10.303-3.055,16.423-7.789,18.192-14.073c3.023-10.698-7.562-22.627-7.667-22.749c-0.399-0.441-0.361-1.122,0.08-1.517
					c0.437-0.399,1.123-0.361,1.518,0.08c0.47,0.521,11.48,12.917,8.146,24.767c-1.984,7.041-8.596,12.275-19.655,15.553
					c-14.279,4.229-30.795,1.694-46.776-0.761c-24.974-3.833-46.566-7.158-54.141,15.381
					C813.701,1796.517,813.28,1796.798,812.83,1796.798z"/>
			</g>
		</g>
		<g>
			
				<linearGradient id="SVGID_00000043457382530272527820000016155578801031583634_" gradientUnits="userSpaceOnUse" x1="2512.8867" y1="3498.7402" x2="2864.0688" y2="1893.3381">
				<stop  offset="0" style="stop-color:#B37CFF"/>
				<stop  offset="1" style="stop-color:#F895E7"/>
			</linearGradient>
			<path style="fill:url(#SVGID_00000043457382530272527820000016155578801031583634_);" d="M2606.376,3209.84
				c96.479,19.29,219.684-85.894,259.375-200.806c40.845-118.255-34.046-167.794-33.468-331.888
				c0.656-186.407,97.622-214.5,161.761-465.759c14.471-56.689,98.213-384.745-5.578-446.236
				c-95.966-56.855-365.523,106.313-412.768,315.154c-33.688,148.914,70.452,211.438,30.679,384.879
				c-34.899,152.182-126.619,154.384-161.761,301.209C2401.834,2945.14,2479.7,3184.512,2606.376,3209.84z"/>
			
				<linearGradient id="SVGID_00000147940851028322298730000006191040249060085153_" gradientUnits="userSpaceOnUse" x1="4254.25" y1="700.4145" x2="843.7072" y2="5034.6436">
				<stop  offset="0" style="stop-color:#A737D5"/>
				<stop  offset="1" style="stop-color:#EF497A"/>
			</linearGradient>
			<path style="fill:url(#SVGID_00000147940851028322298730000006191040249060085153_);" d="M2613.383,3255
				c-26.008-200.838,24.729-510.682,71.872-735.245c51.039-243.127,108.968-441.441,109.546-443.417l8.029,2.356
				c-0.578,1.972-58.428,200.023-109.401,442.84c-47.002,223.909-97.604,532.729-71.748,732.393L2613.383,3255z"/>
		</g>
		<g>
			
				<linearGradient id="SVGID_00000147217153834753704710000015308286121633872308_" gradientUnits="userSpaceOnUse" x1="2937.2888" y1="2224.5342" x2="2984.6523" y2="3476.2937">
				<stop  offset="0" style="stop-color:#B37CFF"/>
				<stop  offset="1" style="stop-color:#F895E7"/>
			</linearGradient>
			<path style="fill:url(#SVGID_00000147217153834753704710000015308286121633872308_);" d="M2771.011,3182.058
				c-113.002-58.879-151.681-261.064-87.447-326.776c43.402-44.399,105.643,2.301,165.689-43.723
				c76.665-58.763,20.269-169.435,80.543-312.968c51.294-122.148,174.333-237.73,246.232-214.015
				c75.263,24.825,114.903,209.019,50.627,319.871c-41.8,72.089-105.783,75.629-119.664,142.677
				c-16.107,77.798,61.709,113.277,62.133,188.701C3169.887,3071.31,2920.505,3259.951,2771.011,3182.058z"/>
			
				<linearGradient id="SVGID_00000010268869574772442960000004041455239881623708_" gradientUnits="userSpaceOnUse" x1="4501.6558" y1="895.0897" x2="1091.114" y2="5229.3174">
				<stop  offset="0" style="stop-color:#A737D5"/>
				<stop  offset="1" style="stop-color:#EF497A"/>
			</linearGradient>
			<path style="fill:url(#SVGID_00000010268869574772442960000004041455239881623708_);" d="M2831.99,3233.837
				c-0.674,0-1.359-0.148-2.006-0.463c-2.288-1.11-3.242-3.863-2.132-6.15c149.811-308.7,193.74-666.819,194.167-670.4
				c0.3-2.525,2.594-4.33,5.114-4.026c2.524,0.3,4.327,2.59,4.026,5.114c-0.428,3.596-44.546,363.254-195.025,673.331
				C2835.339,3232.882,2833.698,3233.837,2831.99,3233.837z"/>
			<path style="fill:#F0F0F0;" d="M3139.348,2650.749c-0.727,0-1.46-0.235-2.078-0.714c-1.474-1.15-1.738-3.274-0.59-4.748
				c47.035-60.375,99.214-151.058,80.693-240.229c-11.046-53.195-42.569-81.093-42.885-81.367c-1.409-1.226-1.561-3.363-0.337-4.774
				c1.222-1.408,3.357-1.566,4.768-0.34c1.358,1.173,33.37,29.397,44.988,84.664c10.656,50.688,5.1,134.546-81.887,246.202
				C3141.352,2650.3,3140.354,2650.749,3139.348,2650.749z"/>
			<path style="fill:#F0F0F0;" d="M2760.824,3156.283c-1.079,0-2.139-0.516-2.793-1.47
				c-72.914-106.417-97.733-188.745-73.766-244.706c21.412-49.997,73.796-59.027,76.015-59.387c1.858-0.281,3.578,0.955,3.879,2.795
				c0.301,1.844-0.95,3.581-2.792,3.885c-0.509,0.083-51.021,8.874-70.915,55.452c-22.613,52.934,2.686,135.279,73.16,238.134
				c1.057,1.543,0.664,3.647-0.877,4.705C2762.148,3156.092,2761.483,3156.283,2760.824,3156.283z"/>
		</g>
	</g>
</g>
</svg>
